<svg width="250" height="61" viewBox="0 0 250 61" fill="none" xmlns="http://www.w3.org/2000/svg">
<path d="M158.944 39.1862C158.944 39.4534 158.845 39.6871 158.645 39.8875C158.446 40.0879 158.213 40.188 157.948 40.188C157.648 40.188 157.399 40.0879 157.2 39.8875C157.034 39.6871 156.951 39.4534 156.951 39.1862V4.12278C156.951 3.85563 157.05 3.62188 157.25 3.42151C157.449 3.22115 157.682 3.12097 157.948 3.12097C158.247 3.12097 158.479 3.22115 158.645 3.42151C158.845 3.62188 158.944 3.85563 158.944 4.12278V39.1862Z" fill="#757575"/>
<path d="M187.002 15.1928C187.301 15.1928 187.534 15.293 187.7 15.4934C187.899 15.6937 187.999 15.9275 187.999 16.1946V30.771C187.999 34.0102 187.085 36.4479 185.258 38.0842C183.463 39.6871 181.071 40.4886 178.08 40.4886C175.123 40.4886 172.731 39.6871 170.903 38.0842C169.109 36.4479 168.212 34.0102 168.212 30.771V16.1946C168.212 15.9275 168.311 15.6937 168.511 15.4934C168.71 15.293 168.943 15.1928 169.209 15.1928C169.508 15.1928 169.74 15.293 169.906 15.4934C170.106 15.6937 170.205 15.9275 170.205 16.1946V30.771C170.205 33.3089 170.903 35.2458 172.299 36.5815C173.728 37.9173 175.655 38.5851 178.08 38.5851C180.539 38.5851 182.466 37.9173 183.862 36.5815C185.291 35.2458 186.005 33.3089 186.005 30.771V16.1946C186.005 15.9275 186.088 15.6937 186.254 15.4934C186.454 15.293 186.703 15.1928 187.002 15.1928Z" fill="#757575"/>
<path d="M207.323 14.3914C208.818 14.3914 210.214 14.6585 211.51 15.1928C212.805 15.7271 213.935 16.4284 214.899 17.2966C215.896 18.1649 216.66 19.0999 217.191 20.1017C217.756 21.1035 218.039 22.0886 218.039 23.057L217.391 21.2037V16.1946C217.391 15.9275 217.474 15.6937 217.64 15.4934C217.839 15.293 218.089 15.1928 218.388 15.1928C218.687 15.1928 218.919 15.293 219.085 15.4934C219.285 15.6937 219.384 15.9275 219.384 16.1946V37.7336C219.384 40.3049 218.853 42.5256 217.79 44.3957C216.76 46.2657 215.331 47.7016 213.503 48.7034C211.676 49.7053 209.549 50.2062 207.123 50.2062C205.794 50.2062 204.449 50.0225 203.086 49.6552C201.757 49.3212 200.644 48.8871 199.747 48.3528C198.85 47.8185 198.401 47.2508 198.401 46.6497C198.401 46.3826 198.468 46.1655 198.601 45.9985C198.767 45.8316 198.983 45.7481 199.249 45.7481C199.581 45.7481 199.88 45.9318 200.146 46.2991C200.445 46.6664 200.96 47.0004 201.691 47.3009C201.99 47.4011 202.389 47.5347 202.887 47.7016C203.419 47.8686 204.05 48.0022 204.781 48.1024C205.512 48.2359 206.326 48.3027 207.223 48.3027C210.38 48.3027 212.855 47.3176 214.65 45.3474C216.477 43.4105 217.391 40.8726 217.391 37.7336V32.7746L217.889 32.8247C217.491 34.2606 216.909 35.4795 216.145 36.4813C215.381 37.4831 214.5 38.3013 213.503 38.9358C212.54 39.5369 211.51 39.971 210.413 40.2381C209.35 40.5387 208.32 40.6889 207.323 40.6889C205.03 40.6889 202.97 40.1212 201.143 38.9859C199.348 37.8171 197.919 36.2476 196.856 34.2773C195.793 32.2737 195.261 30.0196 195.261 27.5151C195.261 25.0106 195.793 22.7732 196.856 20.803C197.919 18.7993 199.348 17.2298 201.143 16.0944C202.97 14.9591 205.03 14.3914 207.323 14.3914ZM207.423 16.2948C205.495 16.2948 203.751 16.779 202.189 17.7474C200.661 18.7159 199.448 20.0516 198.551 21.7547C197.687 23.4244 197.255 25.3445 197.255 27.5151C197.255 29.6523 197.687 31.5724 198.551 33.2755C199.448 34.9786 200.661 36.3311 202.189 37.3329C203.751 38.3013 205.495 38.7855 207.423 38.7855C209.35 38.7855 211.078 38.318 212.606 37.383C214.135 36.4145 215.347 35.0955 216.244 33.4258C217.142 31.7227 217.59 29.7525 217.59 27.5151C217.59 25.2777 217.142 23.3242 216.244 21.6545C215.347 19.9514 214.135 18.6324 212.606 17.6973C211.078 16.7623 209.35 16.2948 207.423 16.2948Z" fill="#757575"/>
<path d="M249.003 15.1928C249.302 15.1928 249.535 15.293 249.701 15.4934C249.9 15.6937 250 15.9275 250 16.1946V39.1862C250 39.4534 249.9 39.6871 249.701 39.8875C249.502 40.0879 249.269 40.188 249.003 40.188C248.704 40.188 248.455 40.0879 248.256 39.8875C248.089 39.6871 248.006 39.4534 248.006 39.1862V32.0734L248.804 31.4222C248.804 32.4908 248.538 33.5761 248.006 34.6781C247.475 35.7801 246.744 36.7819 245.813 37.6835C244.883 38.5851 243.786 39.3198 242.524 39.8875C241.261 40.4218 239.899 40.6889 238.437 40.6889C236.211 40.6889 234.217 40.1046 232.456 38.9358C230.728 37.767 229.366 36.1808 228.369 34.1772C227.372 32.1735 226.874 29.9195 226.874 27.4149C226.874 24.877 227.372 22.6396 228.369 20.7028C229.399 18.7326 230.778 17.1964 232.506 16.0944C234.267 14.9591 236.244 14.3914 238.437 14.3914C239.866 14.3914 241.211 14.6585 242.474 15.1928C243.737 15.6937 244.833 16.4117 245.763 17.3467C246.727 18.2817 247.475 19.3837 248.006 20.6527C248.538 21.8883 248.804 23.2407 248.804 24.71L248.006 23.4578V16.1946C248.006 15.9275 248.089 15.6937 248.256 15.4934C248.455 15.293 248.704 15.1928 249.003 15.1928ZM238.536 38.7855C240.397 38.7855 242.059 38.3013 243.521 37.3329C244.983 36.3311 246.129 34.9786 246.96 33.2755C247.79 31.5391 248.206 29.5855 248.206 27.4149C248.206 25.3445 247.79 23.4745 246.96 21.8048C246.129 20.1017 244.983 18.7659 243.521 17.7975C242.059 16.7957 240.397 16.2948 238.536 16.2948C236.709 16.2948 235.064 16.779 233.602 17.7474C232.14 18.6825 230.977 19.9848 230.113 21.6545C229.283 23.3242 228.867 25.2443 228.867 27.4149C228.867 29.5855 229.283 31.5391 230.113 33.2755C230.944 34.9786 232.09 36.3311 233.552 37.3329C235.014 38.3013 236.676 38.7855 238.536 38.7855Z" fill="#757575"/>
<path d="M139.144 15.1349C139.441 15.1349 139.672 15.2353 139.837 15.436C140.035 15.6368 140.134 15.8709 140.134 16.1386V39.1719C140.134 39.4395 140.035 39.6737 139.837 39.8744C139.639 40.0751 139.408 40.1755 139.144 40.1755C138.847 40.1755 138.599 40.0751 138.401 39.8744C138.236 39.6737 138.153 39.4395 138.153 39.1719V32.0461L138.946 31.3937C138.946 32.4643 138.682 33.5515 138.153 34.6555C137.625 35.7595 136.898 36.7632 135.974 37.6664C135.049 38.5697 133.96 39.3057 132.705 39.8744C131.45 40.4097 130.096 40.6773 128.643 40.6773C126.431 40.6773 124.45 40.0919 122.7 38.921C120.983 37.7501 119.629 36.161 118.638 34.1537C117.648 32.1465 117.152 29.8883 117.152 27.3792C117.152 24.8367 117.648 22.5953 118.638 20.6549C119.662 18.6811 121.032 17.1422 122.749 16.0382C124.499 14.9008 126.464 14.332 128.643 14.332C130.063 14.332 131.401 14.5997 132.655 15.1349C133.91 15.6368 135 16.356 135.924 17.2927C136.882 18.2295 137.625 19.3335 138.153 20.6047C138.682 21.8425 138.946 23.1974 138.946 24.6694L138.153 23.4149V16.1386C138.153 15.8709 138.236 15.6368 138.401 15.436C138.599 15.2353 138.847 15.1349 139.144 15.1349ZM128.742 38.7704C130.592 38.7704 132.243 38.2853 133.695 37.3152C135.148 36.3115 136.288 34.9566 137.113 33.2505C137.939 31.5108 138.351 29.5538 138.351 27.3792C138.351 25.3051 137.939 23.4316 137.113 21.7589C136.288 20.0527 135.148 18.7145 133.695 17.7444C132.243 16.7407 130.592 16.2389 128.742 16.2389C126.926 16.2389 125.292 16.724 123.839 17.6942C122.386 18.6309 121.23 19.9356 120.372 21.6083C119.546 23.2811 119.134 25.2047 119.134 27.3792C119.134 29.5538 119.546 31.5108 120.372 33.2505C121.197 34.9566 122.337 36.3115 123.789 37.3152C125.242 38.2853 126.893 38.7704 128.742 38.7704Z" fill="#002E38"/>
<path d="M11.6237 14.3527C13.8616 14.3527 15.849 14.921 17.5858 16.0575C19.3227 17.1606 20.6922 18.6983 21.6942 20.6705C22.7296 22.6093 23.2474 24.849 23.2474 27.3895C23.2474 29.8966 22.7296 32.1529 21.6942 34.1586C20.6922 36.1643 19.306 37.7521 17.5357 38.9221C15.7989 40.092 13.8282 40.677 11.6237 40.677C10.5214 40.677 9.45259 40.5099 8.41715 40.1756C7.41511 39.8413 6.47987 39.3733 5.61143 38.7716C4.743 38.1365 3.94136 37.3844 3.20653 36.5153C2.5051 35.6127 1.88718 34.6099 1.35276 33.5068L2.00408 32.8048V39.1728C2.00408 39.4402 1.90388 39.6742 1.70347 39.8748C1.53646 40.0753 1.30265 40.1756 1.00204 40.1756C0.73483 40.1756 0.501021 40.0753 0.300612 39.8748C0.100204 39.6742 0 39.4402 0 39.1728V4.1238C0 3.85638 0.0835035 3.62239 0.25051 3.42182C0.450919 3.22125 0.701429 3.12097 1.00204 3.12097C1.30265 3.12097 1.53646 3.22125 1.70347 3.42182C1.90388 3.62239 2.00408 3.85638 2.00408 4.1238V22.2751L1.35276 21.9241C1.82038 20.6872 2.4049 19.6008 3.10633 18.6649C3.80776 17.7289 4.60939 16.9433 5.51123 16.3082C6.41306 15.6731 7.3817 15.1884 8.41715 14.8541C9.45259 14.5198 10.5214 14.3527 11.6237 14.3527ZM11.5235 16.2581C9.6196 16.2581 7.93283 16.7428 6.46317 17.7122C5.02691 18.6481 3.89126 19.9518 3.05623 21.6232C2.22119 23.2946 1.80367 25.2167 1.80367 27.3895C1.80367 29.5623 2.22119 31.5178 3.05623 33.2561C3.89126 34.9609 5.02691 36.3147 6.46317 37.3175C7.93283 38.2869 9.6196 38.7716 11.5235 38.7716C13.394 38.7716 15.0473 38.2702 16.4836 37.2674C17.9532 36.2646 19.1056 34.9107 19.9406 33.2059C20.8091 31.4677 21.2433 29.5289 21.2433 27.3895C21.2433 25.2167 20.8091 23.2946 19.9406 21.6232C19.1056 19.9518 17.9532 18.6481 16.4836 17.7122C15.0473 16.7428 13.394 16.2581 11.5235 16.2581Z" fill="#757575"/>
<path d="M49.8833 15.155C50.1839 15.155 50.4177 15.2552 50.5847 15.4558C50.7851 15.6564 50.8853 15.8904 50.8853 16.1578V30.749C50.8853 33.9915 49.9668 36.4317 48.1297 38.0697C46.326 39.6742 43.9211 40.4764 40.915 40.4764C37.9423 40.4764 35.5374 39.6742 33.7003 38.0697C31.8966 36.4317 30.9948 33.9915 30.9948 30.749V16.1578C30.9948 15.8904 31.095 15.6564 31.2954 15.4558C31.4958 15.2552 31.7296 15.155 31.9968 15.155C32.2974 15.155 32.5312 15.2552 32.6983 15.4558C32.8987 15.6564 32.9989 15.8904 32.9989 16.1578V30.749C32.9989 33.2895 33.7003 35.2283 35.1031 36.5654C36.5394 37.9025 38.4767 38.5711 40.915 38.5711C43.3867 38.5711 45.324 37.9025 46.7268 36.5654C48.1631 35.2283 48.8812 33.2895 48.8812 30.749V16.1578C48.8812 15.8904 48.9647 15.6564 49.1317 15.4558C49.3321 15.2552 49.5826 15.155 49.8833 15.155Z" fill="#757575"/>
<path d="M58.8253 36.1643C58.5915 35.7631 58.4746 35.4456 58.4746 35.2116C58.508 34.9442 58.6416 34.7269 58.8754 34.5597C59.0424 34.3926 59.2595 34.3257 59.5267 34.3592C59.8273 34.3592 60.0779 34.4762 60.2783 34.7102C61.1467 35.947 62.2489 36.9498 63.585 37.7187C64.9545 38.4875 66.5577 38.8719 68.3948 38.8719C69.497 38.8719 70.5492 38.6881 71.5512 38.3204C72.5867 37.9527 73.4217 37.4011 74.0563 36.6657C74.7244 35.9303 75.0584 35.0277 75.0584 33.958C75.0584 32.8215 74.7411 31.919 74.1064 31.2504C73.4718 30.5484 72.6535 29.9969 71.6514 29.5957C70.6494 29.1946 69.5972 28.8603 68.495 28.5929C67.326 28.292 66.207 27.9578 65.1382 27.5901C64.1027 27.1889 63.1842 26.7042 62.3825 26.136C61.5809 25.5343 60.9463 24.8323 60.4787 24.03C60.0111 23.2277 59.7772 22.2751 59.7772 21.1719C59.7772 19.8683 60.128 18.6983 60.8294 17.662C61.5308 16.6258 62.5162 15.8235 63.7854 15.2552C65.0547 14.6535 66.5243 14.3527 68.1944 14.3527C68.996 14.3527 69.8478 14.453 70.7496 14.6535C71.6514 14.8541 72.5533 15.2051 73.4551 15.7065C74.3569 16.1745 75.192 16.843 75.9602 17.7122C76.2274 17.9127 76.3443 18.1634 76.3109 18.4643C76.3109 18.7317 76.194 18.9824 75.9602 19.2164C75.7598 19.3501 75.5427 19.417 75.3089 19.417C75.0751 19.417 74.8747 19.3167 74.7077 19.1161C73.8392 18.1467 72.8205 17.428 71.6514 16.96C70.5158 16.4921 69.2966 16.2581 67.994 16.2581C66.8917 16.2581 65.8563 16.4419 64.8877 16.8096C63.9524 17.1773 63.1842 17.7289 62.583 18.4643C61.9817 19.1663 61.6811 20.0688 61.6811 21.1719C61.7479 22.2082 62.0986 23.0606 62.7333 23.7292C63.4013 24.3977 64.2697 24.9493 65.3386 25.3838C66.4408 25.8184 67.6767 26.2195 69.0461 26.5872C70.1484 26.8547 71.1671 27.1722 72.1024 27.5399C73.071 27.8742 73.906 28.3088 74.6075 28.8436C75.3423 29.3784 75.9101 30.047 76.3109 30.8493C76.7451 31.6515 76.9623 32.6544 76.9623 33.8578C76.9623 35.2617 76.5781 36.4818 75.8099 37.5181C75.0751 38.5209 74.0396 39.3065 72.7036 39.8748C71.4009 40.4096 69.8979 40.677 68.1944 40.677C66.4575 40.677 64.7874 40.326 63.1842 39.624C61.5809 38.9221 60.128 37.7688 58.8253 36.1643Z" fill="#757575"/>
<path d="M95.5924 14.3527C97.0955 14.3527 98.4983 14.5198 99.801 14.8541C101.137 15.1884 102.206 15.6397 103.007 16.2079C103.843 16.7428 104.26 17.311 104.26 17.9127C104.26 18.1467 104.16 18.3807 103.959 18.6147C103.792 18.8153 103.575 18.9156 103.308 18.9156C102.941 18.9156 102.64 18.8153 102.406 18.6147C102.206 18.4142 101.989 18.1802 101.755 17.9127C101.521 17.6119 101.154 17.3445 100.653 17.1105C100.185 16.8765 99.5171 16.6759 98.6486 16.5088C97.8136 16.3416 96.7781 16.2581 95.5423 16.2581C93.605 16.2581 91.8347 16.7595 90.2315 17.7623C88.6282 18.7651 87.3422 20.119 86.3736 21.8238C85.4384 23.4952 84.9707 25.3838 84.9707 27.4898C84.9707 29.6292 85.405 31.5512 86.2734 33.2561C87.1752 34.9609 88.4111 36.3147 89.981 37.3175C91.5842 38.2869 93.438 38.7716 95.5423 38.7716C97.0454 38.7716 98.181 38.6379 98.9492 38.3705C99.7509 38.0697 100.436 37.7521 101.003 37.4178C101.705 37.0167 102.189 36.6323 102.456 36.2646C102.724 35.8968 103.041 35.713 103.408 35.713C103.676 35.713 103.876 35.7966 104.01 35.9637C104.177 36.1308 104.26 36.3481 104.26 36.6155C104.26 37.0167 103.893 37.5515 103.158 38.2201C102.423 38.8552 101.388 39.4235 100.051 39.9249C98.7488 40.4263 97.1957 40.677 95.392 40.677C92.9537 40.677 90.7993 40.1087 88.9288 38.9722C87.0583 37.8022 85.5887 36.2311 84.5198 34.2589C83.4844 32.2532 82.9667 29.9969 82.9667 27.4898C82.9667 25.1498 83.4844 22.9938 84.5198 21.0215C85.5887 19.0159 87.0583 17.4113 88.9288 16.2079C90.8327 14.9711 93.0539 14.3527 95.5924 14.3527Z" fill="#757575"/>
<path fill-rule="evenodd" clip-rule="evenodd" d="M130.195 6.93442C118.62 6.93442 109.237 16.3178 109.237 27.8928C109.237 39.4677 118.62 48.8511 130.195 48.8511C141.77 48.8511 151.153 39.4677 151.153 27.8928C151.153 16.3178 141.77 6.93442 130.195 6.93442ZM105.511 27.8928C105.511 14.26 116.562 3.2085 130.195 3.2085C143.828 3.2085 154.879 14.26 154.879 27.8928C154.879 41.5255 143.828 52.577 130.195 52.577C116.562 52.577 105.511 41.5255 105.511 27.8928Z" fill="#0096B7"/>
<path fill-rule="evenodd" clip-rule="evenodd" d="M145.696 43.3938C146.424 42.6663 147.603 42.6663 148.331 43.3938L159.508 54.5716C160.236 55.2991 160.236 56.4787 159.508 57.2062C158.781 57.9337 157.601 57.9337 156.874 57.2062L145.696 46.0284C144.969 45.3009 144.969 44.1213 145.696 43.3938Z" fill="#0096B7"/>
</svg>
